/* XPM */
static const char *xpm_[] = {
/* columns rows colors chars-per-pixel */
"32 32 101 2 ",
"   c #00579C",
".  c #00579D",
"X  c #00589C",
"o  c #00589D",
"O  c #01589D",
"+  c #00589E",
"@  c #02599E",
"#  c #055B9F",
"$  c #065CA0",
"%  c #095EA2",
"&  c #0E61A4",
"*  c #1364A4",
"=  c #1365A7",
"-  c #1565A5",
";  c #1566A5",
":  c #1566A8",
">  c #216DA9",
",  c #2A74AD",
"<  c #226FB0",
"1  c #2570B1",
"2  c #2772B2",
"3  c #2E76B6",
"4  c #3379B1",
"5  c #347AB1",
"6  c #357BB1",
"7  c #397EB3",
"8  c #3B7EB3",
"9  c #357BBA",
"0  c #377CBB",
"q  c #3D80B6",
"w  c #3C80BE",
"e  c #3F81BF",
"r  c #4887B8",
"t  c #528DBC",
"y  c #4686C3",
"u  c #4D8BC7",
"i  c #4E8CC8",
"p  c #508DC9",
"a  c #5B94CE",
"s  c #5C95CF",
"d  c #5F97D1",
"f  c #699DC5",
"g  c #6A9EC6",
"h  c #6B9EC6",
"j  c #6299D2",
"k  c #6499D3",
"l  c #649AD3",
"z  c #659AD3",
"x  c #649BD3",
"c  c #659BD3",
"v  c #649AD4",
"b  c #659AD4",
"n  c #649BD4",
"m  c #659BD4",
"M  c #669BD5",
"N  c #659CD4",
"B  c #70A2D7",
"V  c #72A3D7",
"C  c #72A4D8",
"Z  c #81ADDB",
"A  c #84AFDC",
"S  c #8BB3D2",
"D  c #8CB4D2",
"F  c #85B0DD",
"G  c #88B1DD",
"H  c #88B2DE",
"J  c #A3C3E5",
"K  c #A4C4E5",
"L  c #A5C5E6",
"P  c #A6C5E6",
"I  c #B1CCE1",
"U  c #BED4E6",
"Y  c #B9D1EB",
"T  c #B9D2EC",
"R  c #C0D6E7",
"E  c #C1D6E7",
"W  c #C6DAE9",
"Q  c #C7DBE9",
"!  c #C9DBEA",
"~  c #C9DCEA",
"^  c #D0E0EE",
"/  c #DAE7F1",
"(  c #DBE7F1",
")  c #D9E6F4",
"_  c #DCE8F5",
"`  c #DDE9F5",
"'  c #DFEAF6",
"]  c #E6EEF5",
"[  c #E6EFF5",
"{  c #E7EFF6",
"}  c #E9F1F7",
"|  c #E9F1F9",
" . c #F0F5FB",
".. c #F1F6FB",
"X. c #FAFCFD",
"o. c #FBFCFD",
"O. c #FCFDFE",
"+. c #FEFEFE",
"@. c #FEFEFF",
"#. c white",
"$. c None",
/* pixels */
"$.$.$.$.$.$.$.$.$.$.$.$.$.$.$.$.$.$.$.$.$.$.$.$.$.$.$.$.$.$.$.$.",
"$.$.$.$.$.$.$.$.$.$.$.$.$.$.b b b b $.$.$.$.$.$.$.$.$.$.$.$.$.$.",
"$.$.$.$.$.$.$.$.$.$.$.$.b b b b b b b c $.$.$.$.$.$.$.$.$.$.$.$.",
"$.$.$.$.$.$.$.$.$.$.c b b b b b b b b b b N $.$.$.$.$.$.$.$.$.$.",
"$.$.$.$.$.$.$.$.$.b b b b b b b b b b b b b c $.$.$.$.$.$.$.$.$.",
"$.$.$.$.$.$.$.c b b b b b b b b b b b b b b b b b $.$.$.$.$.$.$.",
"$.$.$.$.$.b b b b b b b H T ) | | ) Y H b b b b b b c $.$.$.$.$.",
"$.$.$.$.b b b b b b F ` #.#.#.#.#.#.#.#.` A b b b b b b b $.$.$.",
"$.$.$.b b b b b b P #.#.#.#.#.#.#.#.#.#.#.#.P b b b b b p $.$.$.",
"$.$.c b b b b b P #.#.#.#.#.#. . .#.#.#.#.#.#.J b b s 1 o $.$.$.",
"$.$.c b b b b F #.#.#.#. .P B b b B P  .#.#.#.#.Z 0 $ o o $.$.$.",
"$.$.c b b b b ` #.#.#.` B b b b b b b B ` #.#.U , o o o o $.$.$.",
"$.$.c b b b H #.#.#. .B b b b b b b b b C ^ t o o o o o o $.$.$.",
"$.$.c b b b T #.#.#.P b b b b b b b b d 3 o o o o o o o o $.$.$.",
"$.$.c b b b ) #.#.#.B b b b b b b c w % o o o o o o o o o $.$.$.",
"$.$.c b b b | #.#. .b b b b b b i : o o o o o o o o o o o $.$.$.",
"$.$.c b b b | #.#. .b b b b a 1 o o o o o o o o o o o o o $.$.$.",
"$.$.c b b b ) #.#.#.B b j 9 # o o o o o o o o o o o o o o $.$.$.",
"$.$.c b b b T #.#.#.P y & o o o o o o o o o o o o o o o o $.$.$.",
"$.$.c b b b H #.#.#.} ; o o o o o o o o ; E r o o o o o o $.$.$.",
"$.$.c b b b b ` #.#.#.~ ; o o o o o o ; ! #.#.I > o o o o $.$.$.",
"$.$.c b b c w q o.#.#.#.] h = o o = h ] #.#.#.o.4 o o o o $.$.$.",
"$.$.c b u = o o h #.#.#.#.#.#.] ] #.#.#.#.#.#.h o o o o o $.$.$.",
"$.$.$.< o o o o o h o.#.#.#.#.#.#.#.#.#.#.o.h o o o o o o $.$.$.",
"$.$.$.o o o o o o o 6 Q #.#.#.#.#.#.#.#.Q 6 o o o o o o $.$.$.$.",
"$.$.$.$.$.o o o o o o o 8 D E ( ( E S 8 o o o o o o . $.$.$.$.$.",
"$.$.$.$.$.$.$.o o o o o o o o o o o o o o o o o . $.$.$.$.$.$.$.",
"$.$.$.$.$.$.$.$.$.o o o o o o o o o o o o o o $.$.$.$.$.$.$.$.$.",
"$.$.$.$.$.$.$.$.$.$.o o o o o o o o o o o o $.$.$.$.$.$.$.$.$.$.",
"$.$.$.$.$.$.$.$.$.$.$.$.. o o o o o o . $.$.$.$.$.$.$.$.$.$.$.$.",
"$.$.$.$.$.$.$.$.$.$.$.$.$.$.. o o . $.$.$.$.$.$.$.$.$.$.$.$.$.$.",
"$.$.$.$.$.$.$.$.$.$.$.$.$.$.$.$.$.$.$.$.$.$.$.$.$.$.$.$.$.$.$.$."
};
