/* XPM */
static const char *xpm_[] = {
/* columns rows colors chars-per-pixel */
"32 32 113 2 ",
"   c #372A21",
".  c #382E24",
"X  c #392F25",
"o  c #3C2F26",
"O  c #3D3123",
"+  c #383025",
"@  c #3B3125",
"#  c #3A3225",
"$  c #393126",
"%  c #3A3227",
"&  c #3D3125",
"*  c #3F3124",
"=  c #3E3224",
"-  c #3F3325",
";  c #3D3027",
":  c #3E3226",
">  c #3F3327",
",  c #3F3627",
"<  c #3E3128",
"1  c #3F3229",
"2  c #3A3428",
"3  c #3D3528",
"4  c #3E3428",
"5  c #3D352A",
"6  c #3E342A",
"7  c #3F352B",
"8  c #3F372A",
"9  c #3E362B",
"0  c #413326",
"q  c #413525",
"w  c #403426",
"e  c #413527",
"r  c #423427",
"t  c #40332A",
"y  c #403428",
"u  c #413529",
"i  c #433528",
"p  c #403728",
"a  c #423628",
"s  c #433729",
"d  c #41342B",
"f  c #40362A",
"g  c #41372B",
"h  c #42362A",
"j  c #453528",
"k  c #443629",
"l  c #463629",
"z  c #40362C",
"x  c #40382B",
"c  c #42392A",
"v  c #443828",
"b  c #44382A",
"n  c #45392B",
"m  c #46382B",
"M  c #42382C",
"N  c #43392D",
"B  c #423A2D",
"V  c #45392D",
"C  c #47392C",
"Z  c #463A2C",
"A  c #473B2D",
"S  c #463A2E",
"D  c #473B2F",
"F  c #453C2D",
"G  c #443C2F",
"H  c #463D2E",
"J  c #48382B",
"K  c #483A2D",
"L  c #4A3A2D",
"P  c #493B2E",
"I  c #4B3B2E",
"U  c #4D3B2F",
"Y  c #483C2E",
"T  c #493D2F",
"R  c #4A3C2F",
"E  c #4C3C2F",
"W  c #483C30",
"Q  c #493D31",
"!  c #483F30",
"~  c #4A3E30",
"^  c #4B3F31",
"/  c #4D3D30",
"(  c #4C3E31",
")  c #4E3E31",
"_  c #4D3F32",
"`  c #4F3F32",
"'  c #494031",
"]  c #4C4032",
"[  c #4D4133",
"{  c #4E4033",
"}  c #4F4134",
"|  c #4E4234",
" . c #4F4335",
".. c #4E4236",
"X. c #4F4337",
"o. c #514134",
"O. c #504235",
"+. c #524235",
"@. c #514336",
"#. c #534336",
"$. c #504436",
"%. c #514537",
"&. c #524437",
"*. c #514539",
"=. c #524638",
"-. c #534739",
";. c #55473A",
":. c #544838",
">. c #54483A",
",. c #564A3A",
"<. c #564A3C",
"1. c #5A4A3D",
"2. c #594C3C",
/* pixels */
"  = u u u u A Y [ } [ } [ [ [ } } o.=.=.=.=.%.%.=.=.=.=.>.=.;.1.",
"u u A Y A ~ ~ ~ [ [ ~ Y Y ~ ~ ~ ( [ %.%.<.%.} } } } %.=.=.=.>.2.",
"A ~ } ~ Y ~ ( ~ ~ ~ Y Y A Y ~ ~ ~ [ [ } =.} [ [ } } } o.o.=.>.>.",
"=.=.%.[ ~ Y A v A A A A A A Y ~ ~ Y Y ~ %.[ ~ ' [ ~ ~ ~ [ [ } %.",
"} %.%.%.} [ ~ A A A v A v u v v v v v Y ~ Y K A A v u u v v A Y ",
"[ [ %.=.=.%.} } [ Y v v v u u u u v u v A v v u u = = = O e e e ",
"A [ } =.%.=.=.=.%.} ~ A A v u u = = @ @ @ X X o 0 u v u u e u v ",
"v ~ Y [ } %.=.} ~ Y Y Y [ A Y e A ~ N = 2 t 9 @ v A G Y v A v v ",
"u Y ~ ~ Y ~ Y A v v K ~ ~ u %.} ~ ~ A v v A A A A v u A ~ Y ~ Y ",
"Y Y Y Y [ } ( ( ~ Y K Y A v ~ u A A A Y A Y Y Y Y A A Y Y [ } Y ",
"Y ~ v A } [ ( ( Y K K A u v A u u A [ ~ v Y } [ ~ ~ Y ~ Y [ } Y ",
"~ A A [ } } Y v ~ K v v u e v A A A Y e u Y } } %.[ Y Y A ~ %.} ",
"Y A A [ ~ Y A A Y v A Y v v A A Y A u e e u A A %.~ A ~ [ Y =.=.",
"[ Y A A A v v A A u u A v u u Y A Y A u v u u Y } [ A A ~ } =.<.",
"[ ~ v v u u u e A v A A v u e e u = u v v u u v Y ~ v A ~ =.<.>.",
"[ ~ Y v v A e e u A Y v u = v v e u u A A u v Y Y v v v Y %.=.%.",
"[ [ K K K A e = u u v v u = u Y A v u e Y v Y ~ Y A v A ~ } [ } ",
"[ [ Y ( K K u u = @ = = u j e v ~ A v u A A A Y ~ ~ v A ~ } [ } ",
"[ } ~ ~ ~ ( A j e u e e A v v A A Y A A Y Y Y A Y A A ~ Y ~ } } ",
"~ Y Y [ o.( K E K v = u v u @ v A v A Y [ Y Y A A A ~ ~ ~ [ >.%.",
"~ ~ ~ ~ o.( o.o./ ~ ~ u u < u Y Y Y ~ ~ v u v v v v A ~ ~ ~ Y ~ ",
"Y ~ ~ A v ~ ( o.o.Y v v = < u A A ~ Y Y v u u v v v A ~ [ ~ ~ Y ",
"~ ~ ( A v v A u K j A K v u A Y A ~ ~ u u A Y ~ Y A v Y } } Y Y ",
"Y Y ~ Y A v v u 0 u u v A A Y Y ~ [ ~ ~ v A ~ ~ Y A v v A ~ Y ~ ",
"A ~ ~ ~ Y Y v v u v u A Y Y ~ A Y [ ~ [ A G ~ ~ A A v u A v A Y ",
"A [ A ~ ~ Y Y Y A v v Y ~ v A ~ ~ [ ~ Y Y Y Y Y Y v A v v v v v ",
"A Y v Y ~ Y A Y A v A v A v Y %.} [ ~ A v A A A A A Y v v v v v ",
"v Y Y ~ Y [ Y A A A A A Y v ~ } [ ~ Y u N , A A A v A v u v u v ",
"~ Y Y ~ ~ Y A A ~ Y A A A Y ~ %.[ ~ v 9 9 9 x A Y ~ Y ~ A A u u ",
"[ ~ ~ [ ~ A u ~ [ Y v v A ~ ~ [ ~ Y u x 9 9 9 u A Y ~ ~ ~ Y A u ",
"} } [ } ~ v Y ~ [ Y A A Y ~ Y Y ~ A 9 G N 9 9 u u Y Y Y ~ ~ ~ A ",
"} >.=.%.[ Y A ~ ~ ~ Y Y v Y v v Y Y z A Y N 9 u A Y ~ Y Y ~ ~ Y "
};
