/* XPM */
static const char *xpm_[] = {
/* columns rows colors chars-per-pixel */
"32 32 21 1 ",
"  c #FFBF06",
". c #FFC006",
"X c #FFC106",
"o c #FFC007",
"O c #FFC107",
"+ c #FFC206",
"@ c #FFC207",
"# c #0276BB",
"$ c #0176BC",
"% c #0177BC",
"& c #0176BD",
"* c #0177BD",
"= c #0276BC",
"- c #0277BC",
"; c #0276BD",
": c #0277BD",
"> c #0177BE",
", c #0277BE",
"< c #0278BD",
"1 c #0178BE",
"2 c None",
/* pixels */
"22222222222222222222222222222222",
"22222222222222222222222222222222",
"22222222222222222222222222222222",
"22222222222222<;;;22222222222222",
"22222222222;;;;;;;;;222222222222",
"22222222222;;;;;;;;;;22222222222",
"2222222222;;2;;;;;;;;22222222222",
"2222222222;;2<;;;;;;;22222222222",
"2222222222;;;;;;;;;;;22222222222",
"2222222222222222;;;;;22...222222",
"2222222222222222;;;;;2.....22222",
"22222;;;;;;;;;;;;;;;;2......2222",
"2222;<<;;;;;;;;;;;;;;2......2222",
"222#;;;;;;;;;;;;;;;;<2......2222",
"222;;;;;;;;;;;;;;;;;22......2222",
"222;;;;;;;;;222222222.......2222",
"222;;;;;;;2222222222........2222",
"222;;;;;;;2.................2222",
"222;;;;;;22.................2222",
"222;;;;;;2..................2222",
"2222;;;;;2.................22222",
"2222;;;;;2.....22222222222222222",
"222222;;;2.....22222222222222222",
"2222222222...........22222222222",
"2222222222........2 .22222222222",
"2222222222........2..22222222222",
"22222222222..........22222222222",
"22222222222.........222222222222",
"22222222222222....22222222222222",
"22222222222222222222222222222222",
"22222222222222222222222222222222",
"22222222222222222222222222222222"
};
