/* XPM */
static const char *xpm_[] = {
/* columns rows colors chars-per-pixel */
"32 24 127 2 ",
"   c #2C2C2C",
".  c #2D2D2D",
"X  c gray18",
"o  c #2F2F2F",
"O  c gray19",
"+  c #313131",
"@  c #323232",
"#  c gray20",
"$  c #343434",
"%  c #353535",
"&  c gray21",
"*  c #373737",
"=  c gray22",
"-  c #393939",
";  c #3A3A3A",
":  c gray23",
">  c #3C3C3C",
",  c gray24",
"<  c #3E3E3E",
"1  c #3F3F3F",
"2  c gray25",
"3  c #414141",
"4  c gray26",
"5  c #434343",
"6  c #444444",
"7  c gray27",
"8  c #464646",
"9  c #464747",
"0  c gray28",
"q  c #474848",
"w  c #484848",
"e  c #484949",
"r  c #494949",
"t  c #494A4A",
"y  c gray29",
"u  c #4B4B4B",
"i  c gray30",
"p  c #4E4E4E",
"a  c #515151",
"s  c #535353",
"d  c #555555",
"f  c #565656",
"g  c #5A5A5A",
"h  c gray36",
"j  c #5D5D5D",
"k  c gray37",
"l  c #5F5F5F",
"z  c #646464",
"x  c gray40",
"c  c #676767",
"v  c #686868",
"b  c gray42",
"n  c #6C6C6C",
"m  c gray43",
"M  c gray44",
"N  c #717171",
"B  c #767676",
"V  c #777777",
"C  c #7B7B7B",
"Z  c #7E7E7E",
"A  c #808080",
"S  c #818181",
"D  c gray51",
"F  c gray52",
"G  c #868686",
"H  c gray53",
"J  c #888888",
"K  c #898989",
"L  c gray54",
"P  c gray55",
"I  c #8D8D8D",
"U  c #8E8E8E",
"Y  c #909090",
"T  c #939393",
"R  c #989898",
"E  c gray60",
"W  c #9A9A9A",
"Q  c #9B9B9B",
"!  c gray61",
"~  c gray62",
"^  c #9F9F9F",
"/  c #A0A0A0",
"(  c gray63",
")  c #A2A2A2",
"_  c gray64",
"`  c #A4A4A4",
"'  c #A5A5A5",
"]  c gray65",
"[  c gray66",
"{  c #AEAEAE",
"}  c #B4B4B4",
"|  c gray71",
" . c #B6B6B6",
".. c gray72",
"X. c #B9B9B9",
"o. c gray73",
"O. c #BBBBBB",
"+. c #BCBCBC",
"@. c gray",
"#. c #C0C0C0",
"$. c gray76",
"%. c gray77",
"&. c #C6C6C6",
"*. c #CACACA",
"=. c gray80",
"-. c #CDCDCD",
";. c gray81",
":. c #D0D0D0",
">. c gray82",
",. c #D2D2D2",
"<. c LightGray",
"1. c gray83",
"2. c #D5D5D5",
"3. c gray84",
"4. c #D7D7D7",
"5. c #D8D8D8",
"6. c #DADADA",
"7. c gray86",
"8. c gainsboro",
"9. c #DDDDDD",
"0. c gray87",
"q. c #DFDFDF",
"w. c gray88",
"e. c #E1E1E1",
"r. c #E2E2E2",
"t. c gray89",
"y. c None",
/* pixels */
"y.=.=.=.=.=.=.=.=.=.+.~ W W W W W W W W W A x x x x x x x x x x ",
"=.=.=.=.=.=.=.=.=.=.+.~ W W W W W W W W W A x x x x x x x x x x ",
"=.=.=.=.=.=.=.=.=.=.+.~ W W W W W W W W W A x x x x x x x x x x ",
"=.=.=.=.=.=.=.=.=.=.+.~ W W W W W W W W W A x x x x x x x x x x ",
"u u u u u u u u q 0 0 0 0 0 0 0 0 5 5 5 5 5 5 5 5 5 5 1 1 1 1 1 ",
"u u u u u u q 0 0 0 0 0 0 0 0 0 5 5 5 5 5 5 5 5 5 5 1 1 1 1 1 1 ",
"u u u u q 0 0 0 0 0 0 0 0 0 0 5 5 5 5 5 5 5 5 1 5 1 1 1 1 1 1 1 ",
"u u u 0 0 B F i 0 0 5 5 5 5 5 5 5 5 5 5 1 1 5 1 1 1 1 1 1 1 1 1 ",
"u q 0 0 M e.e.L 5 5 0 5 5 5 5 5 5 5 1 5 5 1 1 1 1 1 1 1 1 : : : ",
"0 0 0 5 #.e.e.8.F u 5 5 5 5 5 5 5 5 1 1 1 1 1 1 1 1 1 1 1 : : : ",
"0 0 0 5 j X.8.8.6.U u 5 5 5 5 1 1 1 1 1 1 1 1 1 1 : 1 1 : : : : ",
"0 0 0 5 5 j X.8.6.:.U 0 5 5 5 1 1 1 1 1 1 1 1 1 : : : : : : : * ",
"0 0 0 5 5 1 g #.6.1.:.A 1 1 1 1 1 1 1 1 1 1 : : : : : : : : * * ",
"0 0 5 5 5 5 1 j &.1.:.=.B 1 1 1 1 1 1 1 : : : : : : : : : * * * ",
"5 5 5 5 5 5 1 a W &.:.*.Z : 1 1 1 1 1 1 : : : : : : * : : * * * ",
"5 5 5 5 5 5 f Y ~ ( X.A 1 : 1 1 1 1 1 : : : : : : : : * * * * * ",
"5 5 5 5 1 i Y ] ( W x : : 1 1 : : : : : : : : * * * * * * * * * ",
"5 5 5 5 i U ] ( ~ M 1 : 1 1 : z U U U L L L L F F F A u * * * * ",
"5 5 5 1 L ] ( ~ m 1 : : 1 : : ( e.e.e.8.8.6.6.6.1.1.1.m * * * * ",
"5 5 1 : j W W v : : : : : : * ( e.8.8.8.6.6.1.1.1.:.:.v @ @ @ @ ",
"1 1 1 : : a j : : : 1 : : : * C #.+.+.X.X.X.X. . . .{ f @ @ @ @ ",
"1 1 1 1 : : * : : : : : : : * * @ X X X X X X X X X X @ @ @ @ @ ",
"1 1 1 1 1 : : : : : : : * * * * * * @ @ @ @ @ @ @ @ @ @ @ @ @ @ ",
"1 1 1 1 1 : : : : : * : * * * * * * * * * * @ @ @ @ @ @ @ @ @ @ "
};
