/* XPM */
static const char *xpm_[] = {
/* columns rows colors chars-per-pixel */
"32 32 157 2 ",
"   c #6C372E",
".  c #6E382E",
"X  c #74362D",
"o  c #7D372B",
"O  c #75392E",
"+  c #7D3A2D",
"@  c #6C3730",
"#  c #6F3831",
"$  c #733A30",
"%  c #7C3D31",
"&  c #843C2E",
"*  c #8C3D2E",
"=  c #933E2E",
"-  c #823E31",
";  c #8C3E30",
":  c #8E422E",
">  c #94422E",
",  c #9C412F",
"<  c #96492F",
"1  c #844132",
"2  c #8D4232",
"3  c #8C4939",
"4  c #934331",
"5  c #9A4531",
"6  c #974A36",
"7  c #9B4A33",
"8  c #9E513B",
"9  c #A4432E",
"0  c #AA442E",
"q  c #B5472F",
"w  c #B0482F",
"e  c #BB492F",
"r  c #A34431",
"t  c #AB4631",
"y  c #A44B32",
"u  c #AB4B32",
"i  c #B44730",
"p  c #B24D32",
"a  c #BB4A31",
"s  c #A75035",
"d  c #AC5235",
"f  c #AE5835",
"g  c #A5533B",
"h  c #AA5539",
"j  c #AF5A3D",
"k  c #B35434",
"l  c #BA5435",
"z  c #B35A36",
"x  c #BC5B37",
"c  c #B2573A",
"v  c #B35A3C",
"b  c #BE5D3B",
"n  c #C34C2E",
"m  c #CA4D2F",
"M  c #C24C31",
"N  c #CA4D31",
"B  c #C45233",
"V  c #CC5333",
"C  c #C75936",
"Z  c #CA5A36",
"A  c #CC5638",
"S  c #CC5F38",
"D  c #D25433",
"F  c #D45B36",
"G  c #D95B35",
"H  c #D25E38",
"J  c #DD5F39",
"K  c #C5623B",
"L  c #CF653B",
"P  c #D66237",
"I  c #D5623A",
"U  c #DB6339",
"Y  c #D36D3D",
"T  c #DC6C3D",
"R  c #E2663A",
"E  c #E56B3C",
"W  c #EC6E3C",
"Q  c #E4723E",
"!  c #ED733E",
"~  c #F1743E",
"^  c #F3793F",
"/  c #AA5E46",
"(  c #B66244",
")  c #B96246",
"_  c #B5684C",
"`  c #C56641",
"'  c #CC6C46",
"]  c #D46B42",
"[  c #DC6D40",
"{  c #D77047",
"}  c #DF7045",
"|  c #D4714A",
" . c #E37540",
".. c #EC7641",
"X. c #E37947",
"o. c #EC7A45",
"O. c #E17748",
"+. c #E37D4D",
"@. c #E97D4C",
"#. c #F17641",
"$. c #F57C42",
"%. c #FA7F43",
"&. c #F97E43",
"*. c #F07A4A",
"=. c #F17F49",
"-. c #F27E4B",
";. c #F47C48",
":. c #F47F49",
">. c #F37F4C",
",. c #F37E4B",
"<. c #E77E51",
"1. c #F68043",
"2. c #F78143",
"3. c #F68344",
"4. c #F78346",
"5. c #F68446",
"6. c #F68143",
"7. c #F88043",
"8. c #F88044",
"9. c #F98144",
"0. c #F88244",
"q. c #F88245",
"w. c #F88147",
"e. c #F98346",
"r. c #F88447",
"t. c #F88143",
"y. c #F1824B",
"u. c #F3814D",
"i. c #F4824E",
"p. c #F1844C",
"a. c #F5864F",
"s. c #F6854C",
"d. c #FA8349",
"f. c #F98548",
"g. c #F88449",
"h. c #F9874B",
"j. c #F8854C",
"k. c #FA884C",
"l. c #FA894F",
"z. c #F9884E",
"x. c #EF8450",
"c. c #EA8154",
"v. c #EE8A5A",
"b. c #F38351",
"n. c #F58351",
"m. c #F28854",
"M. c #F58953",
"N. c #FA8C51",
"B. c #FA8D55",
"V. c #FB8E56",
"C. c #FA8B54",
"Z. c #FA8F59",
"A. c #FA8F59",
"S. c #FB915F",
"D. c #FA905C",
"F. c #F29262",
"G. c #FB9360",
/* pixels */
"3 1 1 1 1 1 % $ 1 1 1 1 1 1 1 1 $ . # % O # $ @ $ 1 1 1 1 1 1 1 ",
"#.#.>.;.;.a.{ s O.-.~ ;.n.#.;.} : y p M a w t O ] i.i.u.#.i.b.*.",
"7.8.r.4.7.5.@.b @.B.7.8.B.8.k.X.6 a G V N N B - ;.g.g.r.8.g.Z.D.",
"%.7.7.8.7.8.@.x  .8.$.7.d.8.g. .7 i F N N N i % #.7.2.7.$.7.g.k.",
"%.7.2.7.$.~ Q b Q $.$.8.7.7.%.Q < i N N N N i + ! 7.7.2.#.8.8.8.",
"$.$.$.^ $.$.E l T R ! ! Q P E P 4 0 e e e e 9 O R #.$.#.#.$.! R ",
"L S Z C S S k * i M a a t 9 a p + + + + + + &   u Z Z C C Z Z M ",
"* & 5 p p p u y p p > 5 v ) ( ( / / g 6 X 4 y 7 7 ; + * p p k p ",
"l - C V V V D U V F < f x.y.-.p.m.y.o.' y H V V B , 2 a J V V F ",
"a & A N N N V F V D > z N.4.7.8.g.4.7.Y 5 N m N N t = M D N N N ",
"a & C N m N N N N m = z $.! $.7.7.2.$.L * M N N N t * M N N N N ",
"i & M N N N N N N M = u Q ! #.7.$.! W x * M N N N 9 & q N N N N ",
"* X , t 0 0 0 0 0 9 o , F J C R R J D 0 + 9 0 0 9 * X * 0 0 0 0 ",
"- % - % X - - - - - % - - & - 2 4 2 2 O $ - - - 1 % % - X + & & ",
"#.o.! k h >.-.~ ~ ~ #.*.j 8 #.~ i.-.>.3 ] #.~ ..;.#.~ E 2 E ! ~ ",
"d.r.$.z T B.k.k.8.7.N.B._ h 4.7.j.N.C.8 #.$.$.7.k.g.7.E 7 #.7.7.",
"#.r.$.k I 4.#.$.7.7.8.j.( d 8.7.8.&.! 7 ~ ~ %.7.r.8.7.E 7 ^ 8.7.",
"#.$.~ d U 7.$.$.8.7.$.$.v d 7.7.7.$.W 7 ~ $.%.$.^ $.$.E 4 R $.8.",
"2.! J r B E #.U ! ^ W R y 2 E $.$.~ J 4 Q W #.8.~ ! W F * D E $.",
"u t t > r t 0 r 0 t t t ; - t t 9 r r - r r r r t t t t & t t t ",
"' ` ` ` K K j % j ` ` ` ` ` ` c o + 6 5 5 < &   h ` ` ` ` ` ` g ",
"a.j.j.h.$.r.<.v +.G.M.a.B.j.M.O.4 9 H V V F B % ..j.a.a.j.a.N.@.",
"7.7.7.7.7.8.c.b o.Z.8.7.j.8.j. .5 q J V N N i % ;.7.7.7.7.8.k.D.",
"8.%.7.7.2.7...b Q ;.! 2.7.2.7.Q 6 q V N N N M 1 ;.7.7.$.~ 7.8.j.",
"! 7.$.$.$.W Q x Q ! ! $.#.Q ..T < i N N N M 0 % ! $.$.$.~ $.^ ! ",
"E Q E R W E I d Z R U U F B F Z * > i q i 0 = O F R E R R E R G ",
"y 5 5 4 4 5 4 & 4 5 5 4 ; 4 6 4 % % 1 1 - X O X > 5 5 5 5 > 4 4 ",
"H J H * : U H H H H H C 2 ] F.v.v.v.m.v.| 2 k H H H H H V * & l ",
"N D F 7 l D N N N N N B 2 [ N.B.%.$.$.N.r.d P V N N N N N = ; M ",
"N N N y C N N N N N N a & T $.k.7.^ ^ 4.~ d B N N N N N N , * M ",
"N N N = r N N N N N N a * H ! ^ $.$.$.~ R y a N N N N N N 9 * n ",
"N N M * ; N N N N N N a & M G G G G G G D > 0 N N N N N M = * M "
};
